<?xml version="1.0" encoding="UTF-8" standalone="no"?>
<!-- Created with Inkscape (http://www.inkscape.org/) -->

<svg
   xmlns:dc="http://purl.org/dc/elements/1.1/"
   xmlns:cc="http://creativecommons.org/ns#"
   xmlns:rdf="http://www.w3.org/1999/02/22-rdf-syntax-ns#"
   xmlns:svg="http://www.w3.org/2000/svg"
   xmlns="http://www.w3.org/2000/svg"
   xmlns:sodipodi="http://sodipodi.sourceforge.net/DTD/sodipodi-0.dtd"
   xmlns:inkscape="http://www.inkscape.org/namespaces/inkscape"
   width="210mm"
   height="297mm"
   viewBox="0 0 210 297"
   version="1.1"
   id="svg4808"
   inkscape:version="0.92.3 (2405546, 2018-03-11)"
   sodipodi:docname="georessources.svg">
  <defs
     id="defs4802" />
  <sodipodi:namedview
     id="base"
     pagecolor="#ffffff"
     bordercolor="#666666"
     borderopacity="1.0"
     inkscape:pageopacity="0.0"
     inkscape:pageshadow="2"
     inkscape:zoom="0.7"
     inkscape:cx="235.27138"
     inkscape:cy="1142.9602"
     inkscape:document-units="mm"
     inkscape:current-layer="g4821"
     showgrid="false"
     inkscape:window-width="1600"
     inkscape:window-height="1137"
     inkscape:window-x="2958"
     inkscape:window-y="-8"
     inkscape:window-maximized="1" />
  <metadata
     id="metadata4805">
    <rdf:RDF>
      <cc:Work
         rdf:about="">
        <dc:format>image/svg+xml</dc:format>
        <dc:type
           rdf:resource="http://purl.org/dc/dcmitype/StillImage" />
        <dc:title></dc:title>
      </cc:Work>
    </rdf:RDF>
  </metadata>
  <g
     inkscape:label="Calque 1"
     inkscape:groupmode="layer"
     id="layer1">
    <g
       id="g4821"
       transform="translate(-6.2366069,-19.465774)">
      <path
         style="fill:#9b9c9d;stroke-width:0.26458332"
         d="m 82.323206,69.928058 c -50.724399,164.358482 -25.3622,82.179242 0,0 z M 54.74893,71.732617 c -2.640428,-1.046798 -3.87898,-2.730791 -4.417905,-6.006798 l -0.141458,-0.859896 h 3.142251 3.142251 l 0.524963,0.889743 c 1.007493,1.707576 3.075262,1.438929 3.70437,-0.481277 0.196284,-0.599109 0.308393,-1.92491 0.264583,-3.128933 l -0.07602,-2.089314 -0.826366,1.174432 c -2.040149,2.89946 -6.343047,3.093022 -8.413533,0.378476 -1.606075,-2.105673 -2.269624,-6.269707 -2.269115,-14.239583 3.97e-4,-6.123562 0.34113,-9.003102 1.340139,-11.325361 1.300123,-3.022218 4.67073,-4.535282 7.311528,-3.282142 0.509733,0.241885 1.361165,1.02308 1.892067,1.735989 l 0.96528,1.296197 0.07997,-1.339114 0.07997,-1.339113 h 3.304719 3.304723 l -0.0774,16.470312 c -0.07632,16.238966 -0.08543,16.487691 -0.649139,17.707417 -0.781389,1.690748 -2.622828,3.629755 -4.058473,4.273518 -1.814394,0.813594 -6.264043,0.904174 -8.127408,0.165447 z m 4.668732,-15.766061 c 0.989362,-1.257768 1.122474,-2.345391 1.031833,-8.430842 -0.07385,-4.958226 -0.156028,-5.947696 -0.554533,-6.676896 -0.871534,-1.594773 -2.531067,-1.387735 -3.13419,0.391011 -0.385922,1.138164 -0.507217,11.70774 -0.15353,13.378248 0.41066,1.939594 1.812443,2.607201 2.81042,1.338479 z m 14.697935,13.978991 c -2.055572,-0.710777 -2.923667,-1.476931 -3.8852,-3.428955 l -0.871768,-1.769785 -0.08066,-8.048035 c -0.105042,-10.480797 0.270444,-12.854391 2.378025,-15.03245 1.41601,-1.463361 3.13885,-2.035589 6.1693,-2.049085 4.33795,-0.01932 6.750709,1.224122 8.225904,4.239308 0.609452,1.245676 0.74949,1.971962 0.929732,4.821832 0.116711,1.845391 0.217797,4.33752 0.224637,5.538066 l 0.01243,2.182813 h -5.58886 -5.588862 l 0.114935,3.108854 c 0.06516,1.762612 0.258114,3.372131 0.445574,3.716832 0.69156,1.271643 2.674919,1.267082 3.196717,-0.0074 0.135252,-0.330343 0.32095,-1.285235 0.41266,-2.121979 l 0.166746,-1.521355 h 3.444298 3.444296 l -0.175956,2.315105 c -0.09678,1.273307 -0.304337,2.731822 -0.461246,3.241145 -0.635254,2.062015 -2.248916,3.860282 -4.305093,4.7976 -1.460781,0.665903 -6.302505,0.67619 -8.207616,0.01744 z m 6.487824,-20.918943 c 0,-2.027273 -0.52777,-3.047569 -1.691494,-3.270029 -1.775598,-0.339427 -2.806423,1.008856 -2.806423,3.670705 v 1.415726 h 2.248959 2.248958 z m 9.611659,17.980454 c -1.301541,-2.151623 -1.505297,-4.035449 -1.333368,-12.327594 0.195808,-9.443832 0.463537,-10.760286 2.649165,-13.026328 1.506442,-1.561864 3.059316,-2.052763 6.440863,-2.036101 2.47958,0.01222 2.81693,0.07869 4.43046,0.873031 1.88339,0.927189 2.72153,1.822619 3.63667,3.885215 0.493,1.111163 0.62024,2.096144 0.84424,6.535413 0.14506,2.874886 0.28557,5.196605 0.31222,5.159375 0.0267,-0.03723 1.21879,-4.532532 2.64919,-9.989563 3.92611,-14.932812 4.74481,-10.336807 1.43215,2.187194 -1.70259,6.436887 -3.23261,12.208042 -3.40004,12.824791 -0.16743,0.616749 -0.4437,1.092999 -0.61394,1.058333 -0.18671,-0.03802 -0.37898,0.467625 -0.48463,1.274506 -1.40412,8.164798 -13.036668,9.317255 -16.56298,3.581728 z m 9.459656,-3.956248 c 0.404964,-0.821598 0.672024,-10.590152 0.375914,-13.750088 -0.159128,-1.698115 -0.29669,-2.102048 -0.932328,-2.737687 -0.875495,-0.875496 -1.623983,-0.748509 -2.499423,0.42405 -0.509244,0.682077 -0.537353,1.095855 -0.537353,7.910219 0,7.861845 0.127751,8.684961 1.415709,9.121576 0.901708,0.305676 1.731491,-0.06323 2.177481,-0.96807 z m 33.977644,-5.539042 c -0.29104,-0.05805 -0.63749,-0.208256 -0.76988,-0.333798 -0.14271,-0.135327 0.71905,-3.575235 2.11667,-8.44917 2.35057,-8.197167 2.35929,-8.220454 3.01883,-8.061715 0.36381,0.08756 0.75112,0.246384 0.8607,0.352943 0.1756,0.17076 -3.98075,15.134364 -4.49609,16.186691 -0.11413,0.233064 -0.42986,0.364956 -0.73023,0.305049 z"
         id="path4835"
         inkscape:connector-curvature="0"
         sodipodi:nodetypes="cccscccccccsssscccccccsccccssccsscccssssccccccccsccccssccssscccssscsccccccccsssccccsscccccsc" />
      <path
         style="fill:#f29c0e;stroke-width:0.26458332"
         d="m 52.440596,97.808633 c -1.537012,-0.547537 -2.314491,-1.226479 -3.05637,-2.669009 -0.656743,-1.27699 -0.663097,-1.35405 -0.663097,-8.04246 0,-7.688982 0.183004,-8.877025 1.627317,-10.564381 1.202582,-1.404945 3.113842,-2.01127 5.665595,-1.797338 2.168742,0.181819 3.298952,0.637235 4.407963,1.776179 1.212634,1.245362 1.591993,2.766253 1.76438,7.07357 l 0.150894,3.770312 H 58.10889 53.880504 l 0.0039,2.315104 c 0.0047,2.785989 0.334711,3.605271 1.498071,3.719034 1.069943,0.104632 1.673029,-0.7088 1.673029,-2.256552 l 1e-5,-1.131753 h 2.64768 2.647681 l -0.162216,1.918229 c -0.259554,3.069268 -1.459596,4.973315 -3.735584,5.927075 -1.105014,0.463058 -4.669147,0.440526 -6.012469,-0.03801 z m 4.879492,-15.990174 c 0,-1.382445 -0.08331,-1.633831 -0.703033,-2.121302 -1.39207,-1.095002 -2.736551,0.01717 -2.736551,2.263701 v 1.425898 h 1.719792 1.719792 z m 10.81677,16.034793 c -2.718086,-1.014209 -4.030404,-2.753738 -4.276818,-5.6691 l -0.139771,-1.653646 h 2.576398 2.576399 l 0.242782,1.231776 c 0.327795,1.663104 1.291328,2.431589 2.389073,1.905455 0.936136,-0.448681 1.368814,-1.544635 0.962166,-2.437128 -0.177316,-0.389167 -1.426615,-1.327732 -3.156181,-2.37115 -4.268189,-2.574928 -5.120441,-3.706437 -5.317741,-7.060203 -0.281535,-4.785577 1.7125,-6.871041 6.575102,-6.876582 2.705807,-0.0031 4.327242,0.48378 5.538285,1.662967 1.124088,1.094518 1.586452,2.225972 1.586452,3.8822 v 1.331415 h -2.513541 -2.513542 v -0.734878 c 0,-1.07135 -0.686065,-1.910955 -1.561497,-1.910955 -1.011409,0 -1.671452,0.794525 -1.565965,1.885034 0.09106,0.941377 0.31446,1.129398 3.418906,2.877466 2.249276,1.266534 4.099795,2.981941 4.504727,4.175818 0.183478,0.540956 0.340257,2.174182 0.348401,3.62939 0.01852,3.312292 -0.5094,4.446656 -2.601027,5.58881 -1.145206,0.62535 -1.718513,0.751186 -3.73417,0.819621 -1.538687,0.05224 -2.719933,-0.04553 -3.338438,-0.27631 z m 15.259986,-0.0298 c -2.639827,-0.977908 -4.110947,-3.183221 -4.114863,-6.16847 l -0.0015,-1.124479 h 2.645834 2.645833 v 0.806889 c 0,1.09483 0.647155,2.268059 1.35286,2.452603 0.832847,0.217794 1.994209,-0.47362 2.204783,-1.312611 0.260144,-1.036489 -0.458182,-1.863207 -2.875746,-3.309692 -3.522805,-2.107774 -4.297235,-2.76851 -5.051269,-4.309702 -0.596728,-1.219666 -0.701521,-1.783855 -0.707937,-3.811395 -0.0093,-2.925926 0.578297,-4.205853 2.428631,-5.290489 1.046687,-0.613553 1.535147,-0.710329 3.971595,-0.786892 2.615361,-0.08218 2.863286,-0.04355 4.231695,0.659392 1.946423,0.999863 2.857172,2.334747 3.081803,4.517001 l 0.170217,1.653646 h -2.6835 -2.683526 v -0.885034 c 0,-1.665507 -1.92945,-2.431717 -2.79541,-1.110094 -0.734332,1.120733 -0.293346,2.165467 1.26664,3.00078 2.803356,1.501093 5.278313,3.307593 5.976109,4.362035 0.646359,0.976717 0.718802,1.341826 0.794631,4.005064 0.07512,2.638396 0.02244,3.048698 -0.528746,4.117922 -0.416721,0.808384 -1.023786,1.439391 -1.901327,1.976324 -1.158843,0.709049 -1.546619,0.796599 -3.836459,0.866179 -1.751282,0.05322 -2.873258,-0.04334 -3.590348,-0.308977 z m 15.08125,-0.0026 c -1.584293,-0.582928 -2.331823,-1.236573 -3.058006,-2.673845 -0.654037,-1.294477 -0.661459,-1.384874 -0.661459,-8.056041 0,-7.682257 0.183227,-8.871046 1.627317,-10.55814 1.207892,-1.41115 3.111879,-2.011434 5.693424,-1.795007 2.98064,0.249885 4.82817,1.511593 5.64988,3.858384 0.55998,1.59929 0.86617,12.083055 0.42164,14.43663 -0.3625,1.919237 -1.25999,3.338316 -2.72487,4.308477 -0.97157,0.643448 -1.38638,0.737775 -3.50347,0.796677 -1.59486,0.04437 -2.751745,-0.06211 -3.444456,-0.317032 z m 4.203036,-4.968029 c 0.34209,-0.488405 0.41187,-1.561793 0.41187,-6.335244 0,-5.673315 -0.008,-5.756629 -0.63037,-6.480056 -0.56207,-0.653454 -0.70385,-0.699368 -1.30864,-0.423801 -1.09548,0.499133 -1.289138,1.720858 -1.191382,7.516116 0.07874,4.668023 0.139112,5.255109 0.591712,5.754688 0.65535,0.723363 1.60789,0.709162 2.12681,-0.0317 z m 8.87585,4.75533 c -0.48108,-0.327422 -1.12377,-0.931275 -1.42819,-1.341895 -0.53525,-0.721979 -0.55607,-1.077307 -0.63155,-10.781771 l -0.0781,-10.035188 h 2.65774 2.65774 v 8.184859 c 0,4.677765 0.11057,8.475665 0.25804,8.863542 0.31097,0.817917 1.29688,0.916424 1.94991,0.194828 0.38805,-0.428791 0.43788,-1.437449 0.43788,-8.863541 v -8.379688 h 2.77813 2.77812 l -7.9e-4,7.209896 c -5.3e-4,3.965443 -0.0787,9.08513 -0.17371,11.377083 l -0.17284,4.167188 h -2.60441 -2.60441 v -0.94488 -0.94488 l -0.89114,0.94488 c -0.82891,0.878906 -1.00168,0.94488 -2.47441,0.94488 -1.20636,0 -1.79151,-0.141722 -2.45797,-0.595313 z M 124.25967,86.826339 V 75.449256 h 2.77813 c 2.63357,0 2.77812,0.02851 2.77812,0.548005 0,0.471972 0.13767,0.407728 0.99219,-0.463021 l 0.99219,-1.011026 0.0776,2.226842 c 0.0888,2.550449 -0.001,2.932533 -0.6897,2.932533 -0.27306,0 -0.70165,0.226724 -0.95242,0.50383 -0.41335,0.456743 -0.45361,1.322179 -0.43081,9.260417 l 0.0251,8.756587 h -2.7852 -2.7852 z m 12.82675,11.008315 c -1.56263,-0.489651 -2.32999,-1.077965 -3.05326,-2.340848 -0.63121,-1.10213 -0.64717,-1.276165 -0.72774,-7.936214 -0.0888,-7.337078 0.13361,-9.187722 1.29233,-10.754971 0.84276,-1.139904 2.383,-1.879703 4.28284,-2.057112 l 1.68609,-0.157451 6.17114,-16.701172 c 3.39412,-9.185644 6.20544,-16.742267 6.24736,-16.792496 0.18474,-0.221308 1.70157,0.297338 1.70157,0.581811 0,0.173883 -2.44552,6.921219 -5.4345,14.994081 -2.98898,8.072863 -5.72452,15.480662 -6.07897,16.46178 l -0.64447,1.783847 1.03656,0.528815 c 2.03072,1.035997 3.18388,3.400671 3.18388,6.528874 v 1.677741 h -2.47679 -2.47679 l -0.14732,-1.624568 c -0.18507,-2.041027 -0.84906,-2.87597 -1.90465,-2.395013 -0.37289,0.169902 -0.79466,0.61578 -0.93726,0.990846 -0.1426,0.375062 -0.25927,3.148004 -0.25927,6.162087 0,6.127269 0.12842,6.656232 1.616,6.656232 0.65394,0 0.85918,-0.160182 1.17563,-0.917544 0.21085,-0.50465 0.38337,-1.635744 0.38337,-2.513541 v -1.595999 h 2.64583 2.64584 l -0.008,0.992188 c -0.0146,1.778717 -0.4975,4.809492 -0.8859,5.560573 -0.52938,1.023705 -1.69852,2.140575 -2.86223,2.734255 -1.16627,0.594984 -4.4707,0.66663 -6.17112,0.133799 z m 14.83751,-0.02601 c -1.53701,-0.547537 -2.31449,-1.226479 -3.05637,-2.669008 -0.65674,-1.276991 -0.6631,-1.354051 -0.6631,-8.042461 0,-7.688982 0.18301,-8.877024 1.62732,-10.564381 1.20258,-1.404945 3.11384,-2.01127 5.66559,-1.797338 2.16875,0.181819 3.29896,0.637236 4.40797,1.776179 1.23557,1.268918 1.60162,2.760666 1.73574,7.07357 l 0.11725,3.770312 h -4.19725 -4.19724 v 2.454669 c 0,2.837514 0.34682,3.630735 1.5875,3.630735 1.00088,0 1.5875,-0.852795 1.5875,-2.307831 v -1.131753 h 2.63044 2.63044 l -0.14487,1.918229 c -0.23056,3.052969 -1.43278,4.969256 -3.71845,5.927075 -1.10502,0.463058 -4.66915,0.440526 -6.01247,-0.03801 z m 4.87949,-15.990187 c 0,-1.382445 -0.0833,-1.633831 -0.70303,-2.121302 -1.39207,-1.095002 -2.73655,0.01717 -2.73655,2.263701 v 1.425898 h 1.71979 1.71979 z m 10.81677,16.034793 c -2.70049,-1.007645 -4.00967,-2.734934 -4.29682,-5.6691 l -0.16184,-1.653646 h 2.59744 2.59743 l 0.24278,1.231776 c 0.3278,1.663104 1.29133,2.431589 2.38907,1.905455 0.93614,-0.448681 1.36882,-1.544635 0.96217,-2.437128 -0.17732,-0.389167 -1.42661,-1.327732 -3.15618,-2.37115 -4.33215,-2.613518 -5.12948,-3.69605 -5.32191,-7.225544 -0.18548,-3.40188 0.58014,-4.971267 2.96752,-6.082932 1.64559,-0.766262 5.15894,-0.87649 7.07943,-0.222112 2.28773,0.779507 3.65706,2.703718 3.65706,5.13897 v 1.331415 h -2.47893 -2.47892 l -0.15411,-0.94965 c -0.2004,-1.234964 -0.60665,-1.696183 -1.49402,-1.696183 -0.92113,0 -1.59611,0.746717 -1.59611,1.765763 0,0.95441 0.29937,1.227791 3.01275,2.751206 2.53113,1.421101 4.34494,2.970096 4.82599,4.121412 0.52041,1.245539 0.75076,5.029195 0.38746,6.364692 -0.38223,1.405131 -1.37021,2.587321 -2.76937,3.313756 -1.37305,0.712872 -5.33043,0.93541 -6.81089,0.383 z M 27.422171,78.075889 V 58.742104 l 7.097328,0.08535 7.097328,0.08535 1.547407,0.79375 c 1.207911,0.619604 1.682485,1.049586 2.163088,1.959843 0.592536,1.122256 0.615464,1.390821 0.609872,7.14375 -0.0051,5.256741 -0.06521,6.108451 -0.498336,7.062165 -0.512974,1.129538 -1.414515,1.920886 -2.879509,2.527554 l -0.861335,0.356688 1.251683,0.926041 c 1.548513,1.145646 2.895215,2.882496 3.239747,4.178314 0.143464,0.539583 0.295533,3.808909 0.337931,7.265169 l 0.07709,6.284109 -3.64457,-2.54e-4 -3.644569,-2.54e-4 -0.284692,-0.727605 C 38.873525,96.28054 38.691967,93.345909 38.625499,90.133637 38.559259,86.932179 38.452011,84.053239 38.387176,83.735993 38.19723,82.806557 37.521914,82.328429 36.399107,82.328429 h -1.039434 v 7.540625 7.540625 h -3.96875 -3.96875 z m 10.212995,-2.299955 c 0.730191,-0.487561 0.899373,-1.483121 0.895605,-5.270222 -0.0048,-4.812128 -0.14806,-5.209243 -1.920638,-5.323557 l -1.250462,-0.08064 v 5.438455 5.438455 l 0.992187,-0.004 c 0.545704,-0.0021 1.123192,-0.09152 1.283308,-0.198438 z m 68.849124,-1.199187 -0.70975,-0.318116 8.54253,-20.973746 c 4.69838,-11.535559 8.60835,-21.039573 8.68881,-21.12003 0.0804,-0.08046 0.50038,0.03683 0.93316,0.260627 l 0.78688,0.406911 -4.50045,11.055827 c -2.47524,6.080706 -6.31578,15.515726 -8.53453,20.966715 -2.21874,5.450985 -4.13822,9.939919 -4.26549,9.975405 -0.12727,0.03549 -0.55079,-0.07863 -0.94116,-0.253593 z m 29.38284,-0.0091 -0.69567,-0.309435 3.22875,-8.000939 c 1.77581,-4.400519 3.29386,-8.066059 3.37345,-8.145651 0.19733,-0.197329 1.53601,0.431702 1.53601,0.721754 0,0.427096 -6.41719,16.087008 -6.58327,16.065194 -0.09,-0.01183 -0.47666,-0.160735 -0.85927,-0.330923 z m 11.97895,0.06841 c -0.4516,-0.180197 -0.57238,-0.37547 -0.43906,-0.70989 0.10116,-0.253725 1.62117,-4.330849 3.37782,-9.060276 1.75664,-4.729427 3.22029,-8.634716 3.25254,-8.678423 0.0323,-0.0437 0.41331,0.07536 0.84678,0.264583 l 0.78814,0.344049 -3.35583,8.980045 c -1.8457,4.939025 -3.46643,9.008946 -3.60162,9.044266 -0.13519,0.03532 -0.52614,-0.04764 -0.86877,-0.184354 z m -17.10412,-2.938545 c -0.29104,-0.16229 -0.57364,-0.331911 -0.628,-0.376936 -0.0857,-0.07103 12.21308,-23.550023 14.70921,-28.080503 l 0.90897,-1.649782 0.77314,0.399806 c 0.42523,0.219893 0.77314,0.434349 0.77314,0.476568 0,0.322261 -15.53746,29.384808 -15.74271,29.446454 -0.14552,0.04371 -0.50271,-0.05332 -0.79375,-0.215607 z m -14.2875,-5.027083 c -0.29104,-0.16229 -0.56984,-0.328115 -0.61956,-0.368498 -0.11435,-0.09288 16.05656,-35.356369 16.35178,-35.657941 0.17197,-0.175661 1.08345,0.113677 1.54209,0.489514 0.14371,0.117772 -16.28665,35.696249 -16.51614,35.764194 -0.12595,0.03729 -0.46713,-0.06498 -0.75817,-0.227269 z m 8.00365,-0.272153 c -0.40018,-0.139459 -0.72761,-0.391472 -0.72761,-0.56003 0,-0.375418 14.57472,-40.711141 14.8126,-40.994051 0.0934,-0.111051 0.5565,-0.0671 1.02917,0.09768 0.63583,0.221651 0.81499,0.41184 0.68868,0.731077 -0.0939,0.237319 -3.45001,9.480238 -7.45804,20.539822 -4.00802,11.059583 -7.36154,20.182747 -7.45226,20.273698 -0.0907,0.09095 -0.49236,0.05126 -0.89254,-0.08819 z M 106.59873,61.90694 c -0.47294,-0.127146 -0.85989,-0.276688 -0.85989,-0.332317 0,-0.05563 0.31808,-1.272617 0.70685,-2.704415 0.38877,-1.431798 1.91307,-7.127645 3.38732,-12.657436 2.64275,-9.912772 2.68956,-10.052915 3.32803,-9.965146 0.35618,0.04896 0.75381,0.190899 0.88363,0.315416 0.20118,0.192959 -5.82161,23.878939 -6.39583,25.153024 -0.15129,0.33568 -0.36618,0.37474 -1.05011,0.190874 z"
         id="path4833"
         inkscape:connector-curvature="0" />
      <path
         style="fill:#ae7e47;stroke-width:0.26458332"
         d="m 52.440596,97.808633 c -1.537012,-0.547537 -2.314491,-1.226479 -3.05637,-2.669009 -0.656743,-1.27699 -0.663097,-1.35405 -0.663097,-8.04246 0,-7.688982 0.183004,-8.877025 1.627317,-10.564381 1.202582,-1.404945 3.113842,-2.01127 5.665595,-1.797338 2.168742,0.181819 3.298952,0.637235 4.407963,1.776179 1.212634,1.245362 1.591993,2.766253 1.76438,7.07357 l 0.150894,3.770312 H 58.10889 53.880504 l 0.0039,2.315104 c 0.0047,2.785989 0.334711,3.605271 1.498071,3.719034 1.069943,0.104632 1.673029,-0.7088 1.673029,-2.256552 l 1e-5,-1.131753 h 2.64768 2.647681 l -0.162216,1.918229 c -0.259554,3.069268 -1.459596,4.973315 -3.735584,5.927075 -1.105014,0.463058 -4.669147,0.440526 -6.012469,-0.03801 z m 4.879492,-15.990174 c 0,-1.382445 -0.08331,-1.633831 -0.703033,-2.121302 -1.39207,-1.095002 -2.736551,0.01717 -2.736551,2.263701 v 1.425898 h 1.719792 1.719792 z m 10.81677,16.034793 c -2.718086,-1.014209 -4.030404,-2.753738 -4.276818,-5.6691 l -0.139771,-1.653646 h 2.576398 2.576399 l 0.242782,1.231776 c 0.327795,1.663104 1.291328,2.431589 2.389073,1.905455 0.936136,-0.448681 1.368814,-1.544635 0.962166,-2.437128 -0.177316,-0.389167 -1.426615,-1.327732 -3.156181,-2.37115 -4.268189,-2.574928 -5.120441,-3.706437 -5.317741,-7.060203 -0.281535,-4.785577 1.7125,-6.871041 6.575102,-6.876582 2.705807,-0.0031 4.327242,0.48378 5.538285,1.662967 1.124088,1.094518 1.586452,2.225972 1.586452,3.8822 v 1.331415 h -2.513541 -2.513542 v -0.734878 c 0,-1.07135 -0.686065,-1.910955 -1.561497,-1.910955 -1.011409,0 -1.671452,0.794525 -1.565965,1.885034 0.09106,0.941377 0.31446,1.129398 3.418906,2.877466 2.249276,1.266534 4.099795,2.981941 4.504727,4.175818 0.183478,0.540956 0.340257,2.174182 0.348401,3.62939 0.01852,3.312292 -0.5094,4.446656 -2.601027,5.58881 -1.145206,0.62535 -1.718513,0.751186 -3.73417,0.819621 -1.538687,0.05224 -2.719933,-0.04553 -3.338438,-0.27631 z m 15.259986,-0.0298 c -2.639827,-0.977908 -4.110947,-3.183221 -4.114863,-6.16847 l -0.0015,-1.124479 h 2.645834 2.645833 v 0.806889 c 0,1.09483 0.647155,2.268059 1.35286,2.452603 0.832847,0.217794 1.994209,-0.47362 2.204783,-1.312611 0.260144,-1.036489 -0.458182,-1.863207 -2.875746,-3.309692 -3.522805,-2.107774 -4.297235,-2.76851 -5.051269,-4.309702 -0.596728,-1.219666 -0.701521,-1.783855 -0.707937,-3.811395 -0.0093,-2.925926 0.578297,-4.205853 2.428631,-5.290489 1.046687,-0.613553 1.535147,-0.710329 3.971595,-0.786892 2.615361,-0.08218 2.863286,-0.04355 4.231695,0.659392 1.946423,0.999863 2.857172,2.334747 3.081803,4.517001 l 0.170217,1.653646 h -2.6835 -2.683526 v -0.885034 c 0,-1.665507 -1.92945,-2.431717 -2.79541,-1.110094 -0.734332,1.120733 -0.293346,2.165467 1.26664,3.00078 2.803356,1.501093 5.278313,3.307593 5.976109,4.362035 0.646359,0.976717 0.718802,1.341826 0.794631,4.005064 0.07512,2.638396 0.02244,3.048698 -0.528746,4.117922 -0.416721,0.808384 -1.023786,1.439391 -1.901327,1.976324 -1.158843,0.709049 -1.546619,0.796599 -3.836459,0.866179 -1.751282,0.05322 -2.873258,-0.04334 -3.590348,-0.308977 z m 15.08125,-0.0026 c -1.584293,-0.582928 -2.331823,-1.236573 -3.058006,-2.673845 -0.654037,-1.294477 -0.661459,-1.384874 -0.661459,-8.056041 0,-7.682257 0.183227,-8.871046 1.627317,-10.55814 1.207892,-1.41115 3.111879,-2.011434 5.693424,-1.795007 2.98064,0.249885 4.82817,1.511593 5.64988,3.858384 0.55998,1.59929 0.86617,12.083055 0.42164,14.43663 -0.3625,1.919237 -1.25999,3.338316 -2.72487,4.308477 -0.97157,0.643448 -1.38638,0.737775 -3.50347,0.796677 -1.59486,0.04437 -2.751745,-0.06211 -3.444456,-0.317032 z m 4.203036,-4.968029 c 0.34209,-0.488405 0.41187,-1.561793 0.41187,-6.335244 0,-5.673315 -0.008,-5.756629 -0.63037,-6.480056 -0.56207,-0.653454 -0.70385,-0.699368 -1.30864,-0.423801 -1.09548,0.499133 -1.289138,1.720858 -1.191382,7.516116 0.07874,4.668023 0.139112,5.255109 0.591712,5.754688 0.65535,0.723363 1.60789,0.709162 2.12681,-0.0317 z m 8.87585,4.75533 c -0.48108,-0.327422 -1.12377,-0.931275 -1.42819,-1.341895 -0.53525,-0.721979 -0.55607,-1.077307 -0.63155,-10.781771 l -0.0781,-10.035188 h 2.65774 2.65774 v 8.184859 c 0,4.677765 0.11057,8.475665 0.25804,8.863542 0.31097,0.817917 1.29688,0.916424 1.94991,0.194828 0.38805,-0.428791 0.43788,-1.437449 0.43788,-8.863541 v -8.379688 h 2.77813 2.77812 l -7.9e-4,7.209896 c -5.3e-4,3.965443 -0.0787,9.08513 -0.17371,11.377083 l -0.17284,4.167188 h -2.60441 -2.60441 v -0.94488 -0.94488 l -0.89114,0.94488 c -0.82891,0.878906 -1.00168,0.94488 -2.47441,0.94488 -1.20636,0 -1.79151,-0.141722 -2.45797,-0.595313 z M 124.25967,86.826339 V 75.449256 h 2.77813 c 2.63357,0 2.77812,0.02851 2.77812,0.548005 0,0.471972 0.13767,0.407728 0.99219,-0.463021 l 0.99219,-1.011026 0.0776,2.226842 c 0.0888,2.550449 -0.001,2.932533 -0.6897,2.932533 -0.27306,0 -0.70165,0.226724 -0.95242,0.50383 -0.41335,0.456743 -0.45361,1.322179 -0.43081,9.260417 l 0.0251,8.756587 h -2.7852 -2.7852 z m 12.82675,11.008315 c -1.56263,-0.489651 -2.32999,-1.077965 -3.05326,-2.340848 -0.63121,-1.10213 -0.64717,-1.276165 -0.72774,-7.936214 -0.0888,-7.337078 0.13361,-9.187722 1.29233,-10.754971 0.84276,-1.139904 2.383,-1.879703 4.28284,-2.057112 l 1.68609,-0.157451 6.17114,-16.701172 c 3.39412,-9.185644 6.20544,-16.742267 6.24736,-16.792496 0.18474,-0.221308 1.70157,0.297338 1.70157,0.581811 0,0.173883 -2.44552,6.921219 -5.4345,14.994081 -2.98898,8.072863 -5.72452,15.480662 -6.07897,16.46178 l -0.64447,1.783847 1.03656,0.528815 c 2.03072,1.035997 3.18388,3.400671 3.18388,6.528874 v 1.677741 h -2.47679 -2.47679 l -0.14732,-1.624568 c -0.18507,-2.041027 -0.84906,-2.87597 -1.90465,-2.395013 -0.37289,0.169902 -0.79466,0.61578 -0.93726,0.990846 -0.1426,0.375062 -0.25927,3.148004 -0.25927,6.162087 0,6.127269 0.12842,6.656232 1.616,6.656232 0.65394,0 0.85918,-0.160182 1.17563,-0.917544 0.21085,-0.50465 0.38337,-1.635744 0.38337,-2.513541 v -1.595999 h 2.64583 2.64584 l -0.008,0.992188 c -0.0146,1.778717 -0.4975,4.809492 -0.8859,5.560573 -0.52938,1.023705 -1.69852,2.140575 -2.86223,2.734255 -1.16627,0.594984 -4.4707,0.66663 -6.17112,0.133799 z m 14.83751,-0.02601 c -1.53701,-0.547537 -2.31449,-1.226479 -3.05637,-2.669008 -0.65674,-1.276991 -0.6631,-1.354051 -0.6631,-8.042461 0,-7.688982 0.18301,-8.877024 1.62732,-10.564381 1.20258,-1.404945 3.11384,-2.01127 5.66559,-1.797338 2.16875,0.181819 3.29896,0.637236 4.40797,1.776179 1.23557,1.268918 1.60162,2.760666 1.73574,7.07357 l 0.11725,3.770312 h -4.19725 -4.19724 v 2.454669 c 0,2.837514 0.34682,3.630735 1.5875,3.630735 1.00088,0 1.5875,-0.852795 1.5875,-2.307831 v -1.131753 h 2.63044 2.63044 l -0.14487,1.918229 c -0.23056,3.052969 -1.43278,4.969256 -3.71845,5.927075 -1.10502,0.463058 -4.66915,0.440526 -6.01247,-0.03801 z m 4.87949,-15.990187 c 0,-1.382445 -0.0833,-1.633831 -0.70303,-2.121302 -1.39207,-1.095002 -2.73655,0.01717 -2.73655,2.263701 v 1.425898 h 1.71979 1.71979 z m 10.81677,16.034793 c -2.70049,-1.007645 -4.00967,-2.734934 -4.29682,-5.6691 l -0.16184,-1.653646 h 2.59744 2.59743 l 0.24278,1.231776 c 0.3278,1.663104 1.29133,2.431589 2.38907,1.905455 0.93614,-0.448681 1.36882,-1.544635 0.96217,-2.437128 -0.17732,-0.389167 -1.42661,-1.327732 -3.15618,-2.37115 -4.33215,-2.613518 -5.12948,-3.69605 -5.32191,-7.225544 -0.18548,-3.40188 0.58014,-4.971267 2.96752,-6.082932 1.64559,-0.766262 5.15894,-0.87649 7.07943,-0.222112 2.28773,0.779507 3.65706,2.703718 3.65706,5.13897 v 1.331415 h -2.47893 -2.47892 l -0.15411,-0.94965 c -0.2004,-1.234964 -0.60665,-1.696183 -1.49402,-1.696183 -0.92113,0 -1.59611,0.746717 -1.59611,1.765763 0,0.95441 0.29937,1.227791 3.01275,2.751206 2.53113,1.421101 4.34494,2.970096 4.82599,4.121412 0.52041,1.245539 0.75076,5.029195 0.38746,6.364692 -0.38223,1.405131 -1.37021,2.587321 -2.76937,3.313756 -1.37305,0.712872 -5.33043,0.93541 -6.81089,0.383 z M 27.422171,78.075889 V 58.742104 l 7.097328,0.08535 7.097328,0.08535 1.547407,0.79375 c 1.207911,0.619604 1.682485,1.049586 2.163088,1.959843 0.592536,1.122256 0.615464,1.390821 0.609872,7.14375 -0.0051,5.256741 -0.06521,6.108451 -0.498336,7.062165 -0.512974,1.129538 -1.414515,1.920886 -2.879509,2.527554 l -0.861335,0.356688 1.251683,0.926041 c 1.548513,1.145646 2.895215,2.882496 3.239747,4.178314 0.143464,0.539583 0.295533,3.808909 0.337931,7.265169 l 0.07709,6.284109 -3.64457,-2.54e-4 -3.644569,-2.54e-4 -0.284692,-0.727605 C 38.873525,96.28054 38.691967,93.345909 38.625499,90.133637 38.559259,86.932179 38.452011,84.053239 38.387176,83.735993 38.19723,82.806557 37.521914,82.328429 36.399107,82.328429 h -1.039434 v 7.540625 7.540625 h -3.96875 -3.96875 z m 10.212995,-2.299955 c 0.730191,-0.487561 0.899373,-1.483121 0.895605,-5.270222 -0.0048,-4.812128 -0.14806,-5.209243 -1.920638,-5.323557 l -1.250462,-0.08064 v 5.438455 5.438455 l 0.992187,-0.004 c 0.545704,-0.0021 1.123192,-0.09152 1.283308,-0.198438 z M 147.84608,74.636088 c -0.4516,-0.180197 -0.57238,-0.37547 -0.43906,-0.70989 0.10116,-0.253725 1.62117,-4.330848 3.37782,-9.060275 1.75664,-4.729427 3.22029,-8.634717 3.25254,-8.678424 0.0323,-0.0437 0.41331,0.07536 0.84678,0.264584 l 0.78814,0.344048 -3.35583,8.980046 c -1.8457,4.939024 -3.46643,9.008946 -3.60162,9.044265 -0.13519,0.03532 -0.52614,-0.04764 -0.86877,-0.184354 z m -17.10412,-2.93855 c -0.29104,-0.16229 -0.57364,-0.331911 -0.628,-0.376936 -0.0857,-0.07103 12.21308,-23.550023 14.70921,-28.080503 l 0.90897,-1.649782 0.77314,0.399806 c 0.42523,0.219893 0.77314,0.434349 0.77314,0.476568 0,0.322261 -15.53746,29.384808 -15.74271,29.446454 -0.14552,0.04371 -0.50271,-0.05332 -0.79375,-0.215607 z m -14.2875,-5.027083 c -0.29104,-0.16229 -0.56984,-0.328115 -0.61956,-0.368498 -0.11435,-0.09288 16.05656,-35.356369 16.35178,-35.657941 0.17197,-0.175661 1.08345,0.113677 1.54209,0.489514 0.14371,0.117772 -16.28665,35.696249 -16.51614,35.764194 -0.12595,0.03729 -0.46713,-0.06498 -0.75817,-0.227269 z m 8.00365,-0.272153 c -0.40018,-0.139459 -0.72761,-0.391472 -0.72761,-0.56003 0,-0.375418 14.57472,-40.711141 14.8126,-40.994051 0.0934,-0.111051 0.5565,-0.0671 1.02917,0.09768 0.63583,0.221651 0.81499,0.41184 0.68868,0.731077 -0.0939,0.237319 -3.45001,9.480238 -7.45804,20.539822 -4.00802,11.059583 -7.36154,20.182747 -7.45226,20.273698 -0.0907,0.09095 -0.49236,0.05126 -0.89254,-0.08819 z"
         id="path4831"
         inkscape:connector-curvature="0" />
      <path
         style="fill:#96be0c;stroke-width:0.26458332"
         d="m 52.440596,97.808633 c -1.537012,-0.547537 -2.314491,-1.226479 -3.05637,-2.669009 -0.656743,-1.27699 -0.663097,-1.35405 -0.663097,-8.04246 0,-7.688982 0.183004,-8.877025 1.627317,-10.564381 1.202582,-1.404945 3.113842,-2.01127 5.665595,-1.797338 2.168742,0.181819 3.298952,0.637235 4.407963,1.776179 1.212634,1.245362 1.591993,2.766253 1.76438,7.07357 l 0.150894,3.770312 H 58.10889 53.880504 l 0.0039,2.315104 c 0.0047,2.785989 0.334711,3.605271 1.498071,3.719034 1.069943,0.104632 1.673029,-0.7088 1.673029,-2.256552 l 1e-5,-1.131753 h 2.64768 2.647681 l -0.162216,1.918229 c -0.259554,3.069268 -1.459596,4.973315 -3.735584,5.927075 -1.105014,0.463058 -4.669147,0.440526 -6.012469,-0.03801 z m 4.879492,-15.990174 c 0,-1.382445 -0.08331,-1.633831 -0.703033,-2.121302 -1.39207,-1.095002 -2.736551,0.01717 -2.736551,2.263701 v 1.425898 h 1.719792 1.719792 z m 10.81677,16.034793 c -2.718086,-1.014209 -4.030404,-2.753738 -4.276818,-5.6691 l -0.139771,-1.653646 h 2.576398 2.576399 l 0.242782,1.231776 c 0.327795,1.663104 1.291328,2.431589 2.389073,1.905455 0.936136,-0.448681 1.368814,-1.544635 0.962166,-2.437128 -0.177316,-0.389167 -1.426615,-1.327732 -3.156181,-2.37115 -4.268189,-2.574928 -5.120441,-3.706437 -5.317741,-7.060203 -0.281535,-4.785577 1.7125,-6.871041 6.575102,-6.876582 2.705807,-0.0031 4.327242,0.48378 5.538285,1.662967 1.124088,1.094518 1.586452,2.225972 1.586452,3.8822 v 1.331415 h -2.513541 -2.513542 v -0.734878 c 0,-1.07135 -0.686065,-1.910955 -1.561497,-1.910955 -1.011409,0 -1.671452,0.794525 -1.565965,1.885034 0.09106,0.941377 0.31446,1.129398 3.418906,2.877466 2.249276,1.266534 4.099795,2.981941 4.504727,4.175818 0.183478,0.540956 0.340257,2.174182 0.348401,3.62939 0.01852,3.312292 -0.5094,4.446656 -2.601027,5.58881 -1.145206,0.62535 -1.718513,0.751186 -3.73417,0.819621 -1.538687,0.05224 -2.719933,-0.04553 -3.338438,-0.27631 z m 15.259986,-0.0298 c -2.639827,-0.977908 -4.110947,-3.183221 -4.114863,-6.16847 l -0.0015,-1.124479 h 2.645834 2.645833 v 0.806889 c 0,1.09483 0.647155,2.268059 1.35286,2.452603 0.832847,0.217794 1.994209,-0.47362 2.204783,-1.312611 0.260144,-1.036489 -0.458182,-1.863207 -2.875746,-3.309692 -3.522805,-2.107774 -4.297235,-2.76851 -5.051269,-4.309702 -0.596728,-1.219666 -0.701521,-1.783855 -0.707937,-3.811395 -0.0093,-2.925926 0.578297,-4.205853 2.428631,-5.290489 1.046687,-0.613553 1.535147,-0.710329 3.971595,-0.786892 2.615361,-0.08218 2.863286,-0.04355 4.231695,0.659392 1.946423,0.999863 2.857172,2.334747 3.081803,4.517001 l 0.170217,1.653646 h -2.6835 -2.683526 v -0.885034 c 0,-1.665507 -1.92945,-2.431717 -2.79541,-1.110094 -0.734332,1.120733 -0.293346,2.165467 1.26664,3.00078 2.803356,1.501093 5.278313,3.307593 5.976109,4.362035 0.646359,0.976717 0.718802,1.341826 0.794631,4.005064 0.07512,2.638396 0.02244,3.048698 -0.528746,4.117922 -0.416721,0.808384 -1.023786,1.439391 -1.901327,1.976324 -1.158843,0.709049 -1.546619,0.796599 -3.836459,0.866179 -1.751282,0.05322 -2.873258,-0.04334 -3.590348,-0.308977 z m 15.08125,-0.0026 c -1.584293,-0.582928 -2.331823,-1.236573 -3.058006,-2.673845 -0.654037,-1.294477 -0.661459,-1.384874 -0.661459,-8.056041 0,-7.682257 0.183227,-8.871046 1.627317,-10.55814 1.207892,-1.41115 3.111879,-2.011434 5.693424,-1.795007 2.98064,0.249885 4.82817,1.511593 5.64988,3.858384 0.55998,1.59929 0.86617,12.083055 0.42164,14.43663 -0.3625,1.919237 -1.25999,3.338316 -2.72487,4.308477 -0.97157,0.643448 -1.38638,0.737775 -3.50347,0.796677 -1.59486,0.04437 -2.751745,-0.06211 -3.444456,-0.317032 z m 4.203036,-4.968029 c 0.34209,-0.488405 0.41187,-1.561793 0.41187,-6.335244 0,-5.673315 -0.008,-5.756629 -0.63037,-6.480056 -0.56207,-0.653454 -0.70385,-0.699368 -1.30864,-0.423801 -1.09548,0.499133 -1.289138,1.720858 -1.191382,7.516116 0.07874,4.668023 0.139112,5.255109 0.591712,5.754688 0.65535,0.723363 1.60789,0.709162 2.12681,-0.0317 z m 8.87585,4.75533 c -0.48108,-0.327422 -1.12377,-0.931275 -1.42819,-1.341895 -0.53525,-0.721979 -0.55607,-1.077307 -0.63155,-10.781771 l -0.0781,-10.035188 h 2.65774 2.65774 v 8.184859 c 0,4.677765 0.11057,8.475665 0.25804,8.863542 0.31097,0.817917 1.29688,0.916424 1.94991,0.194828 0.38805,-0.428791 0.43788,-1.437449 0.43788,-8.863541 v -8.379688 h 2.77813 2.77812 l -7.9e-4,7.209896 c -5.3e-4,3.965443 -0.0787,9.08513 -0.17371,11.377083 l -0.17284,4.167188 h -2.60441 -2.60441 v -0.94488 -0.94488 l -0.89114,0.94488 c -0.82891,0.878906 -1.00168,0.94488 -2.47441,0.94488 -1.20636,0 -1.79151,-0.141722 -2.45797,-0.595313 z M 124.25967,86.826339 V 75.449256 h 2.77813 c 2.63357,0 2.77812,0.02851 2.77812,0.548005 0,0.471972 0.13767,0.407728 0.99219,-0.463021 l 0.99219,-1.011026 0.0776,2.226842 c 0.0888,2.550449 -0.001,2.932533 -0.6897,2.932533 -0.27306,0 -0.70165,0.226724 -0.95242,0.50383 -0.41335,0.456743 -0.45361,1.322179 -0.43081,9.260417 l 0.0251,8.756587 h -2.7852 -2.7852 z m 12.82675,11.008315 c -1.56263,-0.489651 -2.32999,-1.077965 -3.05326,-2.340848 -0.63121,-1.10213 -0.64717,-1.276165 -0.72774,-7.936214 -0.0888,-7.337078 0.13361,-9.187722 1.29233,-10.754971 0.84852,-1.147686 2.38176,-1.879587 4.31586,-2.060197 l 1.71911,-0.160533 1.86956,-5.05642 c 10.94365,-29.598202 10.44997,-28.345214 11.13682,-28.266007 0.35174,0.04056 0.7359,0.170123 0.85369,0.287911 0.11779,0.117789 -2.52882,7.6326 -5.88135,16.69958 -3.35254,9.06698 -6.09552,16.525235 -6.09552,16.5739 0,0.04866 0.46935,0.327924 1.04301,0.620583 2.03725,1.039331 3.19032,3.400229 3.19032,6.53216 v 1.677741 h -2.47679 -2.47679 l -0.14732,-1.624568 c -0.18507,-2.041027 -0.84906,-2.87597 -1.90465,-2.395013 -0.37289,0.169902 -0.79466,0.61578 -0.93726,0.990846 -0.1426,0.375062 -0.25927,3.148004 -0.25927,6.162087 0,6.127269 0.12842,6.656232 1.616,6.656232 0.65394,0 0.85918,-0.160182 1.17563,-0.917544 0.21085,-0.50465 0.38337,-1.635744 0.38337,-2.513541 v -1.595999 h 2.64583 2.64584 l -0.008,0.992188 c -0.0146,1.778717 -0.4975,4.809492 -0.8859,5.560573 -0.52938,1.023705 -1.69852,2.140575 -2.86223,2.734255 -1.16627,0.594984 -4.4707,0.66663 -6.17112,0.133799 z m 14.83751,-0.02601 c -1.53701,-0.547537 -2.31449,-1.226479 -3.05637,-2.669008 -0.65674,-1.276991 -0.6631,-1.354051 -0.6631,-8.042461 0,-7.688982 0.18301,-8.877024 1.62732,-10.564381 1.20258,-1.404945 3.11384,-2.01127 5.66559,-1.797338 2.16875,0.181819 3.29896,0.637236 4.40797,1.776179 1.23557,1.268918 1.60162,2.760666 1.73574,7.07357 l 0.11725,3.770312 h -4.19725 -4.19724 v 2.454669 c 0,2.837514 0.34682,3.630735 1.5875,3.630735 1.00088,0 1.5875,-0.852795 1.5875,-2.307831 v -1.131753 h 2.63044 2.63044 l -0.14487,1.918229 c -0.23056,3.052969 -1.43278,4.969256 -3.71845,5.927075 -1.10502,0.463058 -4.66915,0.440526 -6.01247,-0.03801 z m 4.87949,-15.990187 c 0,-1.382445 -0.0833,-1.633831 -0.70303,-2.121302 -1.39207,-1.095002 -2.73655,0.01717 -2.73655,2.263701 v 1.425898 h 1.71979 1.71979 z m 10.81677,16.034793 c -2.70049,-1.007645 -4.00967,-2.734934 -4.29682,-5.6691 l -0.16184,-1.653646 h 2.59744 2.59743 l 0.24278,1.231776 c 0.3278,1.663104 1.29133,2.431589 2.38907,1.905455 0.93614,-0.448681 1.36882,-1.544635 0.96217,-2.437128 -0.17732,-0.389167 -1.42661,-1.327732 -3.15618,-2.37115 -4.33215,-2.613518 -5.12948,-3.69605 -5.32191,-7.225544 -0.18548,-3.40188 0.58014,-4.971267 2.96752,-6.082932 1.64559,-0.766262 5.15894,-0.87649 7.07943,-0.222112 2.28773,0.779507 3.65706,2.703718 3.65706,5.13897 v 1.331415 h -2.47893 -2.47892 l -0.15411,-0.94965 c -0.2004,-1.234964 -0.60665,-1.696183 -1.49402,-1.696183 -0.92113,0 -1.59611,0.746717 -1.59611,1.765763 0,0.95441 0.29937,1.227791 3.01275,2.751206 2.53113,1.421101 4.34494,2.970096 4.82599,4.121412 0.52041,1.245539 0.75076,5.029195 0.38746,6.364692 -0.38223,1.405131 -1.37021,2.587321 -2.76937,3.313756 -1.37305,0.712872 -5.33043,0.93541 -6.81089,0.383 z M 27.422171,78.075889 V 58.742104 l 7.097328,0.08535 7.097328,0.08535 1.547407,0.79375 c 1.207911,0.619604 1.682485,1.049586 2.163088,1.959843 0.592536,1.122256 0.615464,1.390821 0.609872,7.14375 -0.0051,5.256741 -0.06521,6.108451 -0.498336,7.062165 -0.512974,1.129538 -1.414515,1.920886 -2.879509,2.527554 l -0.861335,0.356688 1.251683,0.926041 c 1.548513,1.145646 2.895215,2.882496 3.239747,4.178314 0.143464,0.539583 0.295533,3.808909 0.337931,7.265169 l 0.07709,6.284109 -3.64457,-2.54e-4 -3.644569,-2.54e-4 -0.284692,-0.727605 C 38.873525,96.28054 38.691967,93.345909 38.625499,90.133637 38.559259,86.932179 38.452011,84.053239 38.387176,83.735993 38.19723,82.806557 37.521914,82.328429 36.399107,82.328429 h -1.039434 v 7.540625 7.540625 h -3.96875 -3.96875 z m 10.212995,-2.299955 c 0.730191,-0.487561 0.899373,-1.483121 0.895605,-5.270222 -0.0048,-4.812128 -0.14806,-5.209243 -1.920638,-5.323557 l -1.250462,-0.08064 v 5.438455 5.438455 l 0.992187,-0.004 c 0.545704,-0.0021 1.123192,-0.09152 1.283308,-0.198438 z m 93.106794,-4.078396 c -0.29104,-0.16229 -0.57364,-0.331911 -0.628,-0.376936 -0.0857,-0.07103 12.21308,-23.550023 14.70921,-28.080503 l 0.90897,-1.649782 0.77314,0.399806 c 0.42523,0.219893 0.77314,0.434349 0.77314,0.476568 0,0.322261 -15.53746,29.384808 -15.74271,29.446454 -0.14552,0.04371 -0.50271,-0.05332 -0.79375,-0.215607 z M 124.19353,66.2738 c -0.25467,-0.06807 -0.46303,-0.225002 -0.46303,-0.34874 0,-0.123737 3.33375,-9.415213 7.40834,-20.647726 4.07458,-11.232511 7.40833,-20.462754 7.40833,-20.511649 0,-0.0489 0.35719,0.03561 0.79375,0.187801 0.43656,0.152186 0.79097,0.413883 0.78757,0.581549 -0.003,0.167665 -3.31235,9.412451 -7.35321,20.543969 -4.96723,13.68344 -7.472,20.251988 -7.73287,20.278841 -0.21223,0.02185 -0.59422,-0.01598 -0.84888,-0.08405 z"
         id="path4829"
         inkscape:connector-curvature="0" />
      <path
         style="fill:#575759;stroke-width:0.26458332"
         d="m 52.440596,97.808633 c -1.537012,-0.547537 -2.314491,-1.226479 -3.05637,-2.669009 -0.656743,-1.27699 -0.663097,-1.35405 -0.663097,-8.04246 0,-7.688982 0.183004,-8.877025 1.627317,-10.564381 1.202582,-1.404945 3.113842,-2.01127 5.665595,-1.797338 2.168742,0.181819 3.298952,0.637235 4.407963,1.776179 1.212634,1.245362 1.591993,2.766253 1.76438,7.07357 l 0.150894,3.770312 H 58.10889 53.880504 l 0.0039,2.315104 c 0.0047,2.785989 0.334711,3.605271 1.498071,3.719034 1.069943,0.104632 1.673029,-0.7088 1.673029,-2.256552 l 1e-5,-1.131753 h 2.64768 2.647681 l -0.162216,1.918229 c -0.259554,3.069268 -1.459596,4.973315 -3.735584,5.927075 -1.105014,0.463058 -4.669147,0.440526 -6.012469,-0.03801 z m 4.879492,-15.990174 c 0,-1.382445 -0.08331,-1.633831 -0.703033,-2.121302 -1.39207,-1.095002 -2.736551,0.01717 -2.736551,2.263701 v 1.425898 h 1.719792 1.719792 z m 10.81677,16.034793 c -2.718086,-1.014209 -4.030404,-2.753738 -4.276818,-5.6691 l -0.139771,-1.653646 h 2.576398 2.576399 l 0.242782,1.231776 c 0.327795,1.663104 1.291328,2.431589 2.389073,1.905455 0.936136,-0.448681 1.368814,-1.544635 0.962166,-2.437128 -0.177316,-0.389167 -1.426615,-1.327732 -3.156181,-2.37115 -4.268189,-2.574928 -5.120441,-3.706437 -5.317741,-7.060203 -0.281535,-4.785577 1.7125,-6.871041 6.575102,-6.876582 2.705807,-0.0031 4.327242,0.48378 5.538285,1.662967 1.124088,1.094518 1.586452,2.225972 1.586452,3.8822 v 1.331415 h -2.513541 -2.513542 v -0.734878 c 0,-1.07135 -0.686065,-1.910955 -1.561497,-1.910955 -1.011409,0 -1.671452,0.794525 -1.565965,1.885034 0.09106,0.941377 0.31446,1.129398 3.418906,2.877466 2.249276,1.266534 4.099795,2.981941 4.504727,4.175818 0.183478,0.540956 0.340257,2.174182 0.348401,3.62939 0.01852,3.312292 -0.5094,4.446656 -2.601027,5.58881 -1.145206,0.62535 -1.718513,0.751186 -3.73417,0.819621 -1.538687,0.05224 -2.719933,-0.04553 -3.338438,-0.27631 z m 15.259986,-0.0298 c -2.639827,-0.977908 -4.110947,-3.183221 -4.114863,-6.16847 l -0.0015,-1.124479 h 2.645834 2.645833 v 0.806889 c 0,1.09483 0.647155,2.268059 1.35286,2.452603 0.832847,0.217794 1.994209,-0.47362 2.204783,-1.312611 0.260144,-1.036489 -0.458182,-1.863207 -2.875746,-3.309692 -3.522805,-2.107774 -4.297235,-2.76851 -5.051269,-4.309702 -0.596728,-1.219666 -0.701521,-1.783855 -0.707937,-3.811395 -0.0093,-2.925926 0.578297,-4.205853 2.428631,-5.290489 1.046687,-0.613553 1.535147,-0.710329 3.971595,-0.786892 2.615361,-0.08218 2.863286,-0.04355 4.231695,0.659392 1.946423,0.999863 2.857172,2.334747 3.081803,4.517001 l 0.170217,1.653646 h -2.6835 -2.683526 v -0.885034 c 0,-1.665507 -1.92945,-2.431717 -2.79541,-1.110094 -0.734332,1.120733 -0.293346,2.165467 1.26664,3.00078 2.803356,1.501093 5.278313,3.307593 5.976109,4.362035 0.646359,0.976717 0.718802,1.341826 0.794631,4.005064 0.07512,2.638396 0.02244,3.048698 -0.528746,4.117922 -0.416721,0.808384 -1.023786,1.439391 -1.901327,1.976324 -1.158843,0.709049 -1.546619,0.796599 -3.836459,0.866179 -1.751282,0.05322 -2.873258,-0.04334 -3.590348,-0.308977 z m 15.08125,-0.0026 c -1.584293,-0.582928 -2.331823,-1.236573 -3.058006,-2.673845 -0.654037,-1.294477 -0.661459,-1.384874 -0.661459,-8.056041 0,-7.682257 0.183227,-8.871046 1.627317,-10.55814 1.207892,-1.41115 3.111879,-2.011434 5.693424,-1.795007 2.98064,0.249885 4.82817,1.511593 5.64988,3.858384 0.55998,1.59929 0.86617,12.083055 0.42164,14.43663 -0.3625,1.919237 -1.25999,3.338316 -2.72487,4.308477 -0.97157,0.643448 -1.38638,0.737775 -3.50347,0.796677 -1.59486,0.04437 -2.751745,-0.06211 -3.444456,-0.317032 z m 4.203036,-4.968029 c 0.34209,-0.488405 0.41187,-1.561793 0.41187,-6.335244 0,-5.673315 -0.008,-5.756629 -0.63037,-6.480056 -0.56207,-0.653454 -0.70385,-0.699368 -1.30864,-0.423801 -1.09548,0.499133 -1.289138,1.720858 -1.191382,7.516116 0.07874,4.668023 0.139112,5.255109 0.591712,5.754688 0.65535,0.723363 1.60789,0.709162 2.12681,-0.0317 z m 8.87585,4.75533 c -0.48108,-0.327422 -1.12377,-0.931275 -1.42819,-1.341895 -0.53525,-0.721979 -0.55607,-1.077307 -0.63155,-10.781771 l -0.0781,-10.035188 h 2.65774 2.65774 v 8.184859 c 0,4.677765 0.11057,8.475665 0.25804,8.863542 0.31097,0.817917 1.29688,0.916424 1.94991,0.194828 0.38805,-0.428791 0.43788,-1.437449 0.43788,-8.863541 v -8.379688 h 2.77813 2.77812 l -7.9e-4,7.209896 c -5.3e-4,3.965443 -0.0787,9.08513 -0.17371,11.377083 l -0.17284,4.167188 h -2.60441 -2.60441 v -0.94488 -0.94488 l -0.89114,0.94488 c -0.82891,0.878906 -1.00168,0.94488 -2.47441,0.94488 -1.20636,0 -1.79151,-0.141722 -2.45797,-0.595313 z M 124.25967,86.826339 V 75.449256 h 2.77813 c 2.63357,0 2.77812,0.02851 2.77812,0.548005 0,0.471972 0.13767,0.407728 0.99219,-0.463021 l 0.99219,-1.011026 0.0776,2.226842 c 0.0888,2.550449 -0.001,2.932533 -0.6897,2.932533 -0.27306,0 -0.70165,0.226724 -0.95242,0.50383 -0.41335,0.456743 -0.45361,1.322179 -0.43081,9.260417 l 0.0251,8.756587 h -2.7852 -2.7852 z m 12.82675,11.008315 c -1.56263,-0.489651 -2.32999,-1.077965 -3.05326,-2.340848 -0.63121,-1.10213 -0.64717,-1.276165 -0.72774,-7.936214 -0.0888,-7.337078 0.13361,-9.187722 1.29233,-10.754971 0.84852,-1.147686 2.38176,-1.879587 4.31586,-2.060197 l 1.71911,-0.160533 c 18.90889,-45.78875 12.97221,-35.002166 1.8832,0.238964 0,0.04866 0.46935,0.327924 1.04301,0.620583 2.03725,1.039331 3.19032,3.400229 3.19032,6.53216 v 1.677741 h -2.47679 -2.47679 l -0.14732,-1.624568 c -0.18507,-2.041027 -0.84906,-2.87597 -1.90465,-2.395013 -0.37289,0.169902 -0.79466,0.61578 -0.93726,0.990846 -0.1426,0.375062 -0.25927,3.148004 -0.25927,6.162087 0,6.127269 0.12842,6.656232 1.616,6.656232 0.65394,0 0.85918,-0.160182 1.17563,-0.917544 0.21085,-0.50465 0.38337,-1.635744 0.38337,-2.513541 v -1.595999 h 2.64583 2.64584 l -0.008,0.992188 c -0.0146,1.778717 -0.4975,4.809492 -0.8859,5.560573 -0.52938,1.023705 -1.69852,2.140575 -2.86223,2.734255 -1.16627,0.594984 -4.4707,0.66663 -6.17112,0.133799 z m 14.83751,-0.02601 c -1.53701,-0.547537 -2.31449,-1.226479 -3.05637,-2.669008 -0.65674,-1.276991 -0.6631,-1.354051 -0.6631,-8.042461 0,-7.688982 0.18301,-8.877024 1.62732,-10.564381 1.20258,-1.404945 3.11384,-2.01127 5.66559,-1.797338 2.16875,0.181819 3.29896,0.637236 4.40797,1.776179 1.23557,1.268918 1.60162,2.760666 1.73574,7.07357 l 0.11725,3.770312 h -4.19725 -4.19724 v 2.454669 c 0,2.837514 0.34682,3.630735 1.5875,3.630735 1.00088,0 1.5875,-0.852795 1.5875,-2.307831 v -1.131753 h 2.63044 2.63044 l -0.14487,1.918229 c -0.23056,3.052969 -1.43278,4.969256 -3.71845,5.927075 -1.10502,0.463058 -4.66915,0.440526 -6.01247,-0.03801 z m 4.87949,-15.990187 c 0,-1.382445 -0.0833,-1.633831 -0.70303,-2.121302 -1.39207,-1.095002 -2.73655,0.01717 -2.73655,2.263701 v 1.425898 h 1.71979 1.71979 z m 10.81677,16.034793 c -2.70049,-1.007645 -4.00967,-2.734934 -4.29682,-5.6691 l -0.16184,-1.653646 h 2.59744 2.59743 l 0.24278,1.231776 c 0.3278,1.663104 1.29133,2.431589 2.38907,1.905455 0.93614,-0.448681 1.36882,-1.544635 0.96217,-2.437128 -0.17732,-0.389167 -1.42661,-1.327732 -3.15618,-2.37115 -4.33215,-2.613518 -5.12948,-3.69605 -5.32191,-7.225544 -0.18548,-3.40188 0.58014,-4.971267 2.96752,-6.082932 1.64559,-0.766262 5.15894,-0.87649 7.07943,-0.222112 2.28773,0.779507 3.65706,2.703718 3.65706,5.13897 v 1.331415 h -2.47893 -2.47892 l -0.15411,-0.94965 c -0.2004,-1.234964 -0.60665,-1.696183 -1.49402,-1.696183 -0.92113,0 -1.59611,0.746717 -1.59611,1.765763 0,0.95441 0.29937,1.227791 3.01275,2.751206 2.53113,1.421101 4.34494,2.970096 4.82599,4.121412 0.52041,1.245539 0.75076,5.029195 0.38746,6.364692 -0.38223,1.405131 -1.37021,2.587321 -2.76937,3.313756 -1.37305,0.712872 -5.33043,0.93541 -6.81089,0.383 z M 27.422171,78.075889 V 58.742104 l 7.097328,0.08535 7.097328,0.08535 1.547407,0.79375 c 1.207911,0.619604 1.682485,1.049586 2.163088,1.959843 0.592536,1.122256 0.615464,1.390821 0.609872,7.14375 -0.0051,5.256741 -0.06521,6.108451 -0.498336,7.062165 -0.512974,1.129538 -1.414515,1.920886 -2.879509,2.527554 l -0.861335,0.356688 1.251683,0.926041 c 1.548513,1.145646 2.895215,2.882496 3.239747,4.178314 0.143464,0.539583 0.295533,3.808909 0.337931,7.265169 l 0.07709,6.284109 -3.64457,-2.54e-4 -3.644569,-2.54e-4 -0.284692,-0.727605 C 38.873525,96.28054 38.691967,93.345909 38.625499,90.133637 38.559259,86.932179 38.452011,84.053239 38.387176,83.735993 38.19723,82.806557 37.521914,82.328429 36.399107,82.328429 h -1.039434 v 7.540625 7.540625 h -3.96875 -3.96875 z m 10.212995,-2.299955 c 0.730191,-0.487561 0.899373,-1.483121 0.895605,-5.270222 -0.0048,-4.812128 -0.14806,-5.209243 -1.920638,-5.323557 l -1.250462,-0.08064 v 5.438455 5.438455 l 0.992187,-0.004 c 0.545704,-0.0021 1.123192,-0.09152 1.283308,-0.198438 z"
         id="path4827"
         inkscape:connector-curvature="0"
         sodipodi:nodetypes="cssscsscccccccccscccscscccscscccsccsscsscccsscsscssccccccscssccccsscccssssscccccsssssccccccsccscccccccccsscscccccccccccsccccsscccsccccccccccscccsccccccsscsccccscccccsccsscccssscccccccscscccsscccccsccccssccccssccccsccccssccscssscccsccsccccccccccccccc" />
      <path
         style="fill:#e0011a;stroke-width:0.26458332"
         d="m 140.40894,77.801378 c -0.35847,-0.143095 -0.70286,-0.311272 -0.76532,-0.373727 -0.0625,-0.06246 0.56154,-1.872599 1.38665,-4.022539 0.82511,-2.149938 3.8556,-10.278825 6.73443,-18.064189 5.02793,-13.597286 5.25945,-14.152302 5.87408,-14.081459 0.35192,0.04056 0.73597,0.169874 0.85346,0.28736 0.11748,0.117485 -2.57309,7.763829 -5.97905,16.991874 -3.40596,9.228048 -6.39639,17.403344 -6.64539,18.167329 -0.48597,1.491014 -0.47961,1.486241 -1.45886,1.095351 z M 124.19353,66.2738 c -0.25467,-0.06807 -0.46303,-0.225002 -0.46303,-0.34874 0,-0.123737 3.33375,-9.415213 7.40834,-20.647726 4.07458,-11.232511 7.40833,-20.462754 7.40833,-20.511649 0,-0.0489 0.35719,0.03561 0.79375,0.187801 0.43656,0.152186 0.79097,0.413883 0.78757,0.581549 -0.003,0.167665 -3.31235,9.412451 -7.35321,20.543969 -4.96723,13.68344 -7.472,20.251988 -7.73287,20.278841 -0.21223,0.02185 -0.59422,-0.01598 -0.84888,-0.08405 z"
         id="path4825"
         inkscape:connector-curvature="0" />
      <path
         style="fill:#bb0825;stroke-width:0.26458332"
         d="m 124.19353,66.2738 c -0.25467,-0.06807 -0.46303,-0.225002 -0.46303,-0.34874 0,-0.123737 3.33375,-9.415213 7.40834,-20.647726 4.07458,-11.232511 7.40833,-20.462754 7.40833,-20.511649 0,-0.0489 0.35719,0.03561 0.79375,0.187801 0.43656,0.152186 0.79097,0.413883 0.78757,0.581549 -0.003,0.167665 -3.31235,9.412451 -7.35321,20.543969 -4.96723,13.68344 -7.472,20.251988 -7.73287,20.278841 -0.21223,0.02185 -0.59422,-0.01598 -0.84888,-0.08405 z"
         id="path4823"
         inkscape:connector-curvature="0" />
    </g>
  </g>
</svg>
